<svg width="400" height="206" viewBox="0 0 400 206" fill="none" xmlns="http://www.w3.org/2000/svg">
<path fill-rule="evenodd" clip-rule="evenodd" d="M0 186.951C3.26201 178.102 10.1514 176.126 18.8078 176.134C139.774 176.248 260.739 176.211 381.704 176.211C382.736 176.211 383.767 176.19 384.798 176.216C394.399 176.462 400.121 182.058 399.998 191.067C399.873 200.096 394.074 205.504 384.412 205.504C290.939 205.514 197.466 205.51 103.992 205.51C76.1566 205.51 48.3188 205.308 20.4865 205.627C11.4935 205.73 3.89947 204.455 0.000685441 195.198C0 192.45 0 189.7 0 186.951Z" fill="#077DAF"/>
<path fill-rule="evenodd" clip-rule="evenodd" d="M58.4215 0C62.0948 1.51825 66.1142 1.55732 69.8848 2.70681C75.1641 4.31485 80.3282 6.10865 84.6012 9.77165C90.1101 14.4937 91.3659 21.1445 88.0353 27.761C85.0214 33.7484 79.239 36.218 72.1111 34.5442C65.4541 32.9834 59.3009 29.6159 52.3231 29.1628C47.5203 28.8502 42.9415 29.4027 38.8309 32.0546C31.0148 37.0961 31.2095 46.3098 39.2648 50.8542C45.2953 54.2581 52.0627 55.6866 58.6059 57.6874C64.1813 59.3921 69.7477 61.1105 75.0517 63.5534C100.792 75.4095 108.633 105.683 91.7531 128.589C82.5346 141.097 69.514 147.002 54.4137 148.312C43.1855 149.287 32.0293 148.077 21.1034 145.116C12.1515 142.691 4.16611 138.954 0 129.904C0 127.154 0 124.405 0 121.656C0.997317 121.242 0.985664 120.198 1.36471 119.415C3.72674 114.533 7.56316 111.9 13.0124 111.758C16.0153 111.68 18.9038 112.316 21.7744 113.191C27.5678 114.956 33.1637 117.35 39.1126 118.609C46.1137 120.092 53.023 120.2 59.4894 116.626C65.1244 113.512 67.675 108.442 67.6818 102.142C67.688 96.2798 63.8029 93.1473 59.0782 90.7887C54.6584 88.5816 49.9193 87.2532 45.2 85.8714C35.2214 82.95 25.0823 80.442 16.1332 74.8207C8.28973 69.8951 3.0742 63.0619 1.37774 53.8496C-2.98235 30.1752 10.9705 8.67083 34.8204 2.06798C37.4121 1.35032 40.2039 1.38802 42.6139 0C47.8829 0 53.1525 0 58.4215 0Z" fill="#077DAF"/>
<path fill-rule="evenodd" clip-rule="evenodd" d="M221.836 92.5566C222.488 91.3366 222.155 90.0774 222.156 88.8806C222.18 65.8608 222.173 42.8416 222.178 19.8218C222.178 18.4474 222.138 17.0656 222.265 15.7016C223.151 6.08483 228.908 0.962529 238.388 1.31005C246.838 1.62055 252.294 7.50781 252.31 16.8051C252.379 54.8286 252.357 92.8514 252.336 130.874C252.331 139.12 249.184 144.249 242.99 146.436C236.53 148.719 229.036 146.377 224.383 140.3C215.267 128.393 206.287 116.382 197.252 104.413C185.942 89.429 174.635 74.4418 163.32 59.4608C162.705 58.6465 162.029 57.8774 161.269 56.9521C160.174 58.1091 160.644 59.4169 160.643 60.5582C160.609 83.5781 160.613 106.598 160.625 129.618C160.626 132.146 160.499 134.667 159.805 137.099C157.744 144.31 151.626 148.005 143.239 147.186C136.347 146.515 131.332 141.448 130.608 134.391C130.502 133.368 130.495 132.331 130.495 131.302C130.489 93.2791 130.47 55.2563 130.505 17.2328C130.516 6.86555 136.894 0.455303 146.394 1.38476C151.803 1.91324 155.935 4.86269 159.167 9.21455C171.384 25.6645 183.65 42.078 195.901 58.5026C203.841 69.1461 211.781 79.7896 219.74 90.4188C220.319 91.1906 220.668 92.2311 221.836 92.5566Z" fill="#077DAF"/>
<path fill-rule="evenodd" clip-rule="evenodd" d="M339.702 94.7857C343.487 84.5967 347.01 75.1101 350.533 65.623C357.138 47.8433 363.679 30.039 370.381 12.2956C372.704 6.14792 376.659 1.57055 383.841 1.3231C395.505 0.921434 402.844 11.0639 398.691 22.3319C393.319 36.9112 387.484 51.3185 381.829 65.7916C373.012 88.3549 364.183 110.911 355.343 133.466C354.635 135.273 353.886 137.071 353.043 138.818C350.364 144.373 346.076 147.313 339.737 147.353C333.255 147.394 328.63 144.539 326.185 138.718C321.805 128.292 317.709 117.745 313.58 107.216C302.859 79.876 292.191 52.5153 281.485 25.171C280.097 21.6272 278.92 18.0664 279.464 14.1785C280.34 7.93007 284.692 3.22657 291.046 1.65486C297.112 0.154426 302.605 2.2601 306.355 7.53457C307.689 9.41268 308.604 11.4909 309.404 13.6508C318.963 39.4748 328.551 65.2885 338.139 91.1015C338.519 92.1255 338.989 93.1139 339.702 94.7857Z" fill="#077DAF"/>
</svg>
